,
Brought to you by  http://www.scenetime.com/signup.php
 
 Hottest scene tracker on the net !!!   
 
No fake torrents from scenebalance 
shame on those who comment fake before downloading my torrents

    seed back for speed


 



...................................NFO:.................................................[img]http://noob.hu/2011/05/25/Unknown-UK-Poster.jpg[/img]                                        
 

                  ::::::::::::  EP1C Presents  ::::::::::::

::File:: Unknown.2011.R5.AC3.XViD-EP1C

::Video Source:: KIKTEAM
::Audio Source:: KIKTEAM

::Language:::::: English
::Subtitles::::: Yes, for the german parts.
::IMDB:::::::::: http://www.imdb.com/title/tt1401152/

A man awakens from a coma, only to discover that someone has taken on his 
identity and that no one, (not even his wife), believes him. With the help of a 
young woman, he sets out to prove who he is.


::Specs:::::::::

Format                           : AVI
Format/Info                      : Audio Video Interleave
File size                        : 1.22 GiB
Duration                         : 1h 48mn
Overall bit rate                 : 1 613 Kbps
Writing application              : VirtualDubMod 1.5.10.2 (build 2540/release)
Writing library                  : VirtualDubMod build 2540/release

Video
ID                               : 0
Format                           : MPEG-4 Visual
Format profile                   : Advanced Simple@L5
Format settings, BVOP            : Yes
Format settings, QPel            : No
Format settings, GMC             : No warppoints
Format settings, Matrix          : Custom
Codec ID                         : XVID
Codec ID/Hint                    : XviD
Duration                         : 1h 48mn
Bit rate                         : 1 411 Kbps
Width                            : 720 pixels
Height                           : 304 pixels
Display aspect ratio             : 2.35:1
Frame rate                       : 25.000 fps
Color space                      : YUV
Chroma subsampling               : 4:2:0
Bit depth                        : 8 bits
Scan type                        : Progressive
Bits/(Pixel*Frame)               : 0.258
Stream size                      : 1.07 GiB (87%)
Writing library                  : XviD 58

Audio
ID                               : 1
Format                           : AC-3
Format/Info                      : Audio Coding 3
Mode extension                   : CM (complete main)
Codec ID                         : 2000
Duration                         : 1h 48mn
Bit rate mode                    : Constant
Bit rate                         : 192 Kbps
Channel(s)                       : 2 channels
Channel positions                : Front: L R
Sampling rate                    : 48.0 KHz
Bit depth                        : 16 bits
Stream size                      : 149 MiB (12%)
Alignment                        : Split accross interleaves
Interleave, duration             : 40 ms (1.00 video frame)
Interleave, preload duration     : 500 ms

::NOTES::::::::: 
Presenting Unknown R5.
Enjoy. //iNK

:: Got something we might be interested in? contact us: epic@hushmail.me ::

::::::::::::::::::::::::::::::::  RESPECT  :::::::::::::::::::::::::::::::::
IMAGiNE, Rx, FLAWL3SS, ViSiON, T0XiC, HiVE, bobwhite & All Our Friends!

                 ::::::::::::::::  We Are  ::::::::::::::::  
               :::::: Surpassing the usual or ordinary ::::::
::::::::::::::::::    Heroic and impressive in quality    ::::::::::::::::::     
 ::::::::::::::::::::::::::::::::   EP1C   ::::::::::::::::::::::::::::::::

[img]http://noob.hu/2011/05/25/vlcsnap-2011-05-24-22h24m32s225.png[/img]
[img]http://noob.hu/2011/05/25/vlcsnap-2011-05-24-22h23m46s23.png[/img]
[img]http://noob.hu/2011/05/25/vlcsnap-2011-05-24-22h25m14s128.png[/img]
[img]http://noob.hu/2011/05/25/vlcsnap-2011-05-24-22h24m38s31.png[/img]
[img]http://noob.hu/2011/05/25/vlcsnap-2011-05-24-22h24m22s97.png[/img]